<svg width="15" height="15" viewBox="0 0 15 15" fill="none" xmlns="http://www.w3.org/2000/svg">
<path d="M13.585 1.21642H12.0982V0.498243C12.0982 0.365972 12.045 0.239124 11.9502 0.145594C11.8555 0.0520638 11.7269 -0.000488281 11.5929 -0.000488281C11.4589 -0.000488281 11.3303 0.0520638 11.2356 0.145594C11.1408 0.239124 11.0875 0.365972 11.0875 0.498243V1.21243H3.91146V0.498243C3.91146 0.365972 3.85822 0.239124 3.76345 0.145594C3.66868 0.0520638 3.54014 -0.000488281 3.40611 -0.000488281C3.27208 -0.000488281 3.14354 0.0520638 3.04877 0.145594C2.954 0.239124 2.90075 0.365972 2.90075 0.498243V1.21243H1.415C1.04059 1.21243 0.681447 1.35888 0.416228 1.61969C0.151009 1.8805 0.00133717 2.23442 0 2.60391V3.8557H14.996V2.60391C14.9936 2.2358 14.844 1.88351 14.5798 1.62368C14.3155 1.36384 13.958 1.21746 13.585 1.21642Z" fill="#030303"/>
<path d="M0 13.6082C0.00133717 13.9776 0.151009 14.3316 0.416228 14.5924C0.681447 14.8532 1.04059 14.9996 1.415 14.9996H13.585C13.9594 14.9996 14.3186 14.8532 14.5838 14.5924C14.849 14.3316 14.9987 13.9776 15 13.6082V4.93018H0V13.6082ZM7.075 11.8676C7.11993 11.3981 7.26002 10.9423 7.48695 10.5273C7.71388 10.1123 8.02302 9.74649 8.396 9.4517C9.09541 8.72754 9.27835 8.50311 9.27835 7.93854C9.27835 7.50963 9.16616 7.17448 8.67192 7.17448C8.17769 7.17448 8.02709 7.53157 8.00384 8.10212H7.11138C7.08791 7.88883 7.11245 7.67306 7.18324 7.47021C7.25404 7.26736 7.36934 7.08244 7.52092 6.92865C7.6725 6.77486 7.85662 6.65601 8.06013 6.58056C8.26364 6.50512 8.48151 6.47493 8.6982 6.49219C8.90216 6.46408 9.10993 6.48242 9.30559 6.5458C9.50126 6.60917 9.67963 6.71593 9.82704 6.85784C9.97446 6.99976 10.087 7.17308 10.156 7.36455C10.2251 7.55603 10.2488 7.76055 10.2254 7.96246C10.2254 8.63177 10.0232 8.98689 9.26016 9.72402C8.78529 10.1278 8.40375 10.6275 8.1413 11.1893H10.382L10.2567 11.9184H7.075V11.8676ZM4.67657 6.967C5.047 6.91576 5.39635 6.76613 5.68728 6.53411H6.30281V11.9204H5.38104V7.53158C5.14897 7.58492 4.91179 7.61368 4.67354 7.61736L4.67657 6.967Z" fill="#030303"/>
</svg>
