<svg width="7" height="8" viewBox="0 0 7 8" fill="none" xmlns="http://www.w3.org/2000/svg">
<path fill-rule="evenodd" clip-rule="evenodd" d="M0.243714 0.146111C0.523737 -0.0838938 0.932343 -0.0372798 1.15636 0.250226L4.0781 4L1.15636 7.74977C0.932343 8.03728 0.523736 8.08389 0.243713 7.85389C-0.0363096 7.62388 -0.0817102 7.20436 0.142308 6.91685L2.41505 4L0.142309 1.08315C-0.0817097 0.795642 -0.036309 0.376116 0.243714 0.146111ZM3.16561 0.146111C3.44564 -0.0838936 3.85424 -0.0372795 4.07826 0.250227L7 4L4.07826 7.74977C3.85424 8.03728 3.44563 8.08389 3.16561 7.85389C2.88559 7.62388 2.84019 7.20436 3.06421 6.91685L5.33695 4L3.06421 1.08315C2.84019 0.795642 2.88559 0.376116 3.16561 0.146111Z" fill="#999999"/>
</svg>
