<svg width="17" height="17" viewBox="0 0 17 17" fill="none" xmlns="http://www.w3.org/2000/svg">
<path d="M8.49028 0.000246146C6.80951 0.00217033 5.16704 0.502356 3.77048 1.43756C2.37393 2.37276 1.28597 3.701 0.644144 5.2544C0.00231957 6.8078 -0.164562 8.51659 0.164589 10.1648C0.49374 11.813 1.30415 13.3267 2.49338 14.5144C3.68261 15.7022 5.19727 16.5107 6.8459 16.8378C8.49454 17.1648 10.2031 16.9958 11.7557 16.352C13.3083 15.7082 14.6352 14.6186 15.5686 13.2209C16.5021 11.8231 17.0002 10.1801 17 8.49929C16.9994 7.38246 16.7787 6.27667 16.3507 5.24511C15.9227 4.21355 15.2957 3.27641 14.5055 2.48719C13.7153 1.69796 12.7773 1.07215 11.7452 0.645434C10.7131 0.218721 9.6071 -0.000520827 8.49028 0.000246146ZM8.80653 11.7163L4.11814 6.78371H13.4959L8.80653 11.7163Z" fill="#030303"/>
</svg>
